<?xml version="1.0" encoding="utf-8"?><svg xml:space="preserve" viewBox="0 0 100 100" y="0" x="0" xmlns="http://www.w3.org/2000/svg" id="圖層_1" version="1.1" width="200px" height="200px" xmlns:xlink="http://www.w3.org/1999/xlink" style="width:100%;height:100%;background-size:initial;background-repeat-y:initial;background-repeat-x:initial;background-position-y:initial;background-position-x:initial;background-origin:initial;background-color:initial;background-clip:initial;background-attachment:initial;animation-play-state:paused" ><g class="ldl-scale" style="transform-origin:50% 50%;transform:rotate(0deg) scale(0.8, 0.8);animation-play-state:paused" ><path fill="#333" d="M45.5 8.2l-29.4 17c-2.8 1.6-4.5 4.6-4.5 7.8v34c0 3.2 1.7 6.2 4.5 7.8l29.4 17c2.8 1.6 6.2 1.6 9 0l29.4-17c2.8-1.6 4.5-4.6 4.5-7.8V33c0-3.2-1.7-6.2-4.5-7.8l-29.4-17c-2.8-1.6-6.2-1.6-9 0z" style="fill:rgb(51, 51, 51);animation-play-state:paused" ></path>
<path fill="#abbd81" d="M68.7 46.2H53.8V31.3c0-2.1-1.7-3.8-3.8-3.8s-3.8 1.7-3.8 3.8v14.9H31.3c-2.1 0-3.8 1.7-3.8 3.8s1.7 3.8 3.8 3.8h14.9v14.9c0 2.1 1.7 3.8 3.8 3.8s3.8-1.7 3.8-3.8V53.8h14.9c2.1 0 3.8-1.7 3.8-3.8s-1.7-3.8-3.8-3.8z" style="fill:rgba(229, 234, 216, 0.58);animation-play-state:paused" ></path>
<metadata xmlns:d="https://loading.io/stock/" style="animation-play-state:paused" ><d:name style="animation-play-state:paused" >add</d:name>
<d:tags style="animation-play-state:paused" >add,plus,cross,new,create,upload,insert,append,hexagon,form</d:tags>
<d:license style="animation-play-state:paused" >by</d:license>
<d:slug style="animation-play-state:paused" >lk38ht</d:slug></metadata></g><!-- generated by https://loading.io/ --></svg>