<?xml version="1.0" encoding="utf-8"?><svg xml:space="preserve" viewBox="0 0 100 100" y="0" x="0" xmlns="http://www.w3.org/2000/svg" id="圖層_1" version="1.1" width="200px" height="200px" xmlns:xlink="http://www.w3.org/1999/xlink" style="width:100%;height:100%;background-size:initial;background-repeat-y:initial;background-repeat-x:initial;background-position-y:initial;background-position-x:initial;background-origin:initial;background-color:initial;background-clip:initial;background-attachment:initial;animation-play-state:paused" ><g class="ldl-scale" style="transform-origin:50% 50%;transform:rotate(0deg) scale(0.8, 0.8);animation-play-state:paused" ><path stroke="#333" stroke-width="8" fill="#fff" stroke-miterlimit="10" d="M74.026 88H25.974C18.256 88 12 81.744 12 74.026V25.974C12 18.256 18.256 12 25.974 12h48.052C81.744 12 88 18.256 88 25.974v48.052C88 81.744 81.744 88 74.026 88z" style="stroke:rgb(51, 51, 51);fill:rgba(255, 255, 255, 0.533);animation-play-state:paused" ></path>
<path fill="#333" d="M38.917 51.008l27.348 19.647c.822.59 1.967.003 1.967-1.009V30.353a1.242 1.242 0 0 0-1.967-1.009L38.917 48.991a1.242 1.242 0 0 0 0 2.017z" style="fill:rgb(51, 51, 51);animation-play-state:paused" ></path>
<path fill="#333" d="M33.116 71h4.169c.745 0 1.349-.604 1.349-1.349V30.349c0-.745-.604-1.349-1.349-1.349h-4.169c-.745 0-1.349.604-1.349 1.349v39.303c0 .744.604 1.348 1.349 1.348z" style="fill:rgb(51, 51, 51);animation-play-state:paused" ></path>
<metadata xmlns:d="https://loading.io/stock/" style="animation-play-state:paused" ><d:name style="animation-play-state:paused" >rewind</d:name>


<d:tags style="animation-play-state:paused" >rewind,back,seek,behind,speed down,slower,decrease,previous section,player</d:tags>


<d:license style="animation-play-state:paused" >by</d:license>


<d:slug style="animation-play-state:paused" >n16w47</d:slug></metadata></g><!-- generated by https://loading.io/ --></svg>