<?xml version="1.0" encoding="utf-8"?><svg xml:space="preserve" viewBox="0 0 100 100" y="0" x="0" xmlns="http://www.w3.org/2000/svg" id="圖層_1" version="1.1" width="200px" height="200px" xmlns:xlink="http://www.w3.org/1999/xlink" style="width:100%;height:100%;background-size:initial;background-repeat-y:initial;background-repeat-x:initial;background-position-y:initial;background-position-x:initial;background-origin:initial;background-color:initial;background-clip:initial;background-attachment:initial;animation-play-state:paused" ><g class="ldl-scale" style="transform-origin:50% 50%;transform:rotate(0deg) scale(0.8, 0.8);animation-play-state:paused" ><circle fill="#333" r="39" cy="50" cx="50" style="fill:rgb(51, 51, 51);animation-play-state:paused" ></circle>
<path fill="#fefefe" d="M51.829 50.596l15.697 19.393c.562.694 1.683.297 1.683-.596V30.607c0-.893-1.122-1.29-1.683-.596L51.829 49.404a.948.948 0 0 0 0 1.192z" style="fill:rgb(254, 254, 254);animation-play-state:paused" ></path>
<path fill="#fefefe" d="M34.614 50.596l15.697 19.393c.562.694 1.683.297 1.683-.596V30.607c0-.893-1.122-1.29-1.683-.596L34.614 49.404a.948.948 0 0 0 0 1.192z" style="fill:rgb(254, 254, 254);animation-play-state:paused" ></path>
<path fill="#fefefe" d="M31.819 71h1.936c.568 0 1.028-.46 1.028-1.028V30.028c0-.568-.46-1.028-1.028-1.028h-1.936c-.568 0-1.028.46-1.028 1.028v39.943c0 .569.46 1.029 1.028 1.029z" style="fill:rgb(254, 254, 254);animation-play-state:paused" ></path>
<metadata xmlns:d="https://loading.io/stock/" style="animation-play-state:paused" ><d:name style="animation-play-state:paused" >rewind</d:name>


<d:tags style="animation-play-state:paused" >rewind,back,seek,behind,speed down,slower,decrease,previous section,player</d:tags>


<d:license style="animation-play-state:paused" >by</d:license>


<d:slug style="animation-play-state:paused" >p16nr4</d:slug></metadata></g><!-- generated by https://loading.io/ --></svg>